<svg width="41" height="40" viewBox="0 0 41 40" fill="none" xmlns="http://www.w3.org/2000/svg">
<path d="M17.6005 8H9.20007C8.53729 8 8 8.53729 8 9.20007V17.6005C8 18.2633 8.53729 18.8006 9.20007 18.8006H17.6005C18.2633 18.8006 18.8006 18.2633 18.8006 17.6005V9.20007C18.8006 8.53729 18.2633 8 17.6005 8Z" fill="#D73A49"/>
<path opacity="0.5" d="M17.6005 21.1992H9.20007C8.53729 21.1992 8 21.7365 8 22.3993V30.7998C8 31.4625 8.53729 31.9998 9.20007 31.9998H17.6005C18.2633 31.9998 18.8006 31.4625 18.8006 30.7998V22.3993C18.8006 21.7365 18.2633 21.1992 17.6005 21.1992Z" fill="#D73A49"/>
<path opacity="0.5" d="M30.8013 8H22.4009C21.7381 8 21.2008 8.53729 21.2008 9.20007V17.6005C21.2008 18.2633 21.7381 18.8006 22.4009 18.8006H30.8013C31.4641 18.8006 32.0014 18.2633 32.0014 17.6005V9.20007C32.0014 8.53729 31.4641 8 30.8013 8Z" fill="#D73A49"/>
<path opacity="0.5" d="M30.8013 21.1992H22.4009C21.7381 21.1992 21.2008 21.7365 21.2008 22.3993V30.7998C21.2008 31.4625 21.7381 31.9998 22.4009 31.9998H30.8013C31.4641 31.9998 32.0014 31.4625 32.0014 30.7998V22.3993C32.0014 21.7365 31.4641 21.1992 30.8013 21.1992Z" fill="#D73A49"/>
</svg>
