<svg xmlns="http://www.w3.org/2000/svg" fill="none" viewBox="0 0 138 71" height="150px" width="150px" style="height: 100%; width: 100%; background: rgb(255, 255, 255);"><g class="ldl-scale" style="transform-origin: 50% 50%; transform: rotate(0deg) scale(0.8, 0.8);"><g class="ldl-ani" style="transform: scale(0.91); transform-origin: 69px 35.5px; animation: 1.11111s linear 0s infinite normal forwards running breath;">
<g class="ldl-layer"><g class="ldl-ani"><g clip-path="url(#clip0_122_18857)">
<g class="ldl-layer"><g class="ldl-ani"><path fill="url(#paint0_linear_122_18857)" d="M132.489 50.4893L131.823 50.0405C129.502 48.4633 128.86 47.6682 128.86 46.3474C128.86 44.6804 130.438 44.0906 131.784 44.0906C134.015 44.0906 134.644 45.0779 134.657 45.1164C134.772 45.3344 134.951 45.9114 134.977 46.1679C135.003 46.3346 135.041 46.6295 135.387 46.6295C135.772 46.6295 135.772 46.2064 135.772 45.9243C135.772 44.7061 135.836 43.988 135.862 43.693C135.862 43.6033 135.862 43.552 135.862 43.5263C135.862 43.1673 135.541 43.1673 135.413 43.1673C135.234 43.1673 135.067 43.1673 134.631 43.0647C134.079 42.9365 133.131 42.7954 132.143 42.7954C128.848 42.7954 126.719 44.5522 126.719 47.2835C126.719 49.0275 127.719 50.4765 130.168 52.3102L131.246 53.1181C133.336 54.6697 134.131 55.4134 134.131 56.9137C134.131 58.6577 132.848 59.7348 130.797 59.7348C129.322 59.7348 127.617 59.1834 127.27 57.6447C127.193 57.3497 127.193 57.042 127.193 56.8624C127.193 56.5162 126.975 56.388 126.783 56.388C126.642 56.388 126.398 56.4649 126.398 56.9522C126.398 57.0291 126.386 57.1317 126.373 57.2471C126.334 57.7088 126.257 58.4782 126.257 59.3758C126.257 59.9913 126.283 60.1965 126.719 60.4145C127.924 60.9915 129.579 61.0428 130.233 61.0428C131.938 61.0428 133.233 60.7607 134.092 60.2093C135.605 59.2219 136.375 57.8627 136.375 56.1572C136.375 54.0542 135.234 52.4128 132.438 50.5021L132.489 50.4893Z"></path></g></g>
<g class="ldl-layer"><g class="ldl-ani"><path fill="url(#paint1_linear_122_18857)" d="M22.3634 39.2555C21.7992 39.2555 21.0811 39.294 20.6066 39.3196C20.4015 39.3196 20.2476 39.3453 20.1963 39.3453C20.0809 39.3453 19.8501 39.3453 19.5423 39.3196C18.9781 39.294 18.1959 39.2555 17.4778 39.2555C17.1828 39.2555 16.6571 39.2555 16.6571 39.6915C16.6571 39.8325 16.7212 40.0762 17.1828 40.0762C17.4778 40.0762 17.8753 40.0762 18.1446 40.1659C18.3497 40.2685 18.3882 40.4865 18.3882 40.6148C18.3882 40.8584 18.2472 41.2944 18.1446 41.615C17.5804 43.4615 14.1437 52.4377 12.4254 56.5027L7.28334 42.7819C6.91146 41.8073 6.55242 40.884 6.55242 40.5506C6.55242 40.3968 6.59089 40.2814 6.78323 40.1916C6.9884 40.1018 7.42439 40.0762 7.75779 40.0762C8.20661 40.0762 8.24508 39.7941 8.24508 39.6658C8.24508 39.2555 7.64239 39.2555 7.28334 39.2555C6.57806 39.2555 5.78302 39.294 5.2701 39.3196C5.00081 39.3196 4.79564 39.3453 4.70588 39.3453C4.59047 39.3453 4.34683 39.3453 4.01343 39.3196C3.34662 39.294 2.34641 39.2555 1.44879 39.2555C1.05127 39.2555 0.512695 39.2555 0.512695 39.6658C0.512695 39.9095 0.679397 40.0762 0.948684 40.0762C1.10256 40.0762 1.5642 40.0762 1.94889 40.1788C2.82087 40.4352 3.20556 40.666 3.80825 42.192L10.6045 59.2084L10.6815 59.4007C11.1944 60.683 11.3355 61.0677 11.8099 61.0677C12.1561 61.0677 12.2844 60.7856 12.7075 59.8367C12.8358 59.5674 12.9768 59.234 13.1692 58.8237C13.7847 57.5029 14.9644 54.6818 16.6058 50.7707L17.8753 47.7188C18.8627 45.3337 19.6449 43.4487 19.8757 42.8716C20.6066 41.0379 21.0041 40.5763 21.3247 40.3583C21.7992 40.0634 22.3634 40.0634 22.5429 40.0634C23.0174 40.0634 23.0943 39.8069 23.0943 39.653C23.0943 39.3837 22.8635 39.2427 22.4019 39.2427L22.3634 39.2555Z"></path></g></g>
<g class="ldl-layer"><g class="ldl-ani"><path fill="url(#paint2_linear_122_18857)" d="M28.365 59.9007C28.1726 59.9007 27.6853 59.8494 27.3135 59.7981C26.7877 59.7212 26.7108 59.4647 26.6338 58.7723C26.5312 57.8362 26.5312 56.0794 26.5312 53.8482V49.8089C26.5312 46.2569 26.5312 45.6157 26.5569 44.8976C26.6082 44.1154 26.7236 43.923 27.2237 43.8205C27.4673 43.7692 27.6212 43.7692 27.7751 43.7692C27.9674 43.7692 28.1726 43.564 28.1726 43.3716C28.1726 43.1024 27.9803 42.9741 27.5827 42.9741C27.057 42.9741 26.1081 42.9998 25.5823 43.0126C25.3772 43.0126 25.2489 43.0126 25.2105 43.0126C25.172 43.0126 25.0181 43.0126 24.8001 43.0126C24.2744 42.9998 23.3639 42.9741 22.8125 42.9741C22.4278 42.9741 22.2227 43.1024 22.2227 43.3716C22.2227 43.564 22.3894 43.7692 22.6202 43.7692C22.7741 43.7692 23.0562 43.7948 23.2998 43.8461C23.646 43.923 23.8384 44.1026 23.8897 44.8976C23.941 45.6157 23.941 46.2569 23.941 49.8089V53.8482C23.941 55.7204 23.9281 57.7593 23.8127 58.7723C23.723 59.4904 23.646 59.734 23.3511 59.7981C23.1587 59.8494 22.8766 59.9007 22.6715 59.9007C22.4278 59.9007 22.2739 60.1059 22.2739 60.2982C22.2739 60.4521 22.3509 60.6958 22.8638 60.6958C23.3767 60.6958 24.2615 60.6573 24.7873 60.6316C25.0053 60.6316 25.172 60.6188 25.2105 60.6188C25.2361 60.6188 25.3259 60.6188 25.4669 60.6188C25.967 60.6445 27.1468 60.6958 28.1726 60.6958C28.7112 60.6958 28.7497 60.388 28.7497 60.2982C28.7497 60.1059 28.6086 59.9007 28.3521 59.9007H28.365Z"></path></g></g>
<g class="ldl-layer"><g class="ldl-ani"><path fill="url(#paint3_linear_122_18857)" d="M48.3563 42.9744C47.7151 42.9744 47.1637 43 46.7791 43.0129C46.5867 43.0129 46.4328 43.0257 46.3431 43.0257C46.2533 43.0257 46.0738 43.0257 45.8301 43.0129C45.33 43 44.5863 42.9744 43.8682 42.9744C43.663 42.9744 43.2014 42.9744 43.2014 43.3463C43.2014 43.6027 43.3553 43.7694 43.5989 43.7694C43.7784 43.7694 44.3042 43.7951 44.7145 43.872C45.2403 43.9746 45.407 44.2439 45.4326 45.7955L45.6634 56.7208C45.4198 56.4644 45.112 56.1438 44.753 55.7591C43.5861 54.5153 41.9832 52.8226 40.4316 51.2197C37.9439 48.6679 35.5844 46.1802 34.161 44.6927C33.5071 44.0002 33.0711 43.5386 32.9428 43.4232L32.8274 43.3078C32.4684 42.9359 32.1734 42.6538 31.8785 42.6538C31.3912 42.6538 31.3528 43.3591 31.3528 44.0131V57.1184C31.3528 59.1573 31.2502 59.6574 30.827 59.7728C30.5064 59.8753 30.0961 59.901 29.9166 59.901C29.6986 59.901 29.519 60.0805 29.519 60.2985C29.519 60.696 29.9422 60.696 30.1089 60.696C30.8527 60.696 31.5708 60.6576 32.0067 60.6319C32.1991 60.6319 32.3273 60.6191 32.3914 60.6191C32.4556 60.6191 32.571 60.6191 32.7377 60.6319C33.1865 60.6576 33.9302 60.696 34.892 60.696C35.4177 60.696 35.5331 60.478 35.5331 60.2985C35.5331 60.0805 35.3536 59.901 35.1356 59.901C34.892 59.901 34.379 59.8625 34.0072 59.7728C33.5327 59.6574 33.3019 59.2727 33.2506 57.362L32.9941 47.1291C33.9943 48.2062 36.2127 50.5272 38.7517 53.2073C41.2266 55.7847 44.6504 59.1701 44.9197 59.4009C46.3174 60.696 46.5482 60.8499 46.8688 60.8499C47.2663 60.8499 47.2663 60.5293 47.2663 59.0034L47.3176 45.6031C47.3176 44.1669 47.4074 43.9361 47.9844 43.8207C48.2281 43.7694 48.4076 43.7694 48.5102 43.7694C48.7795 43.7694 48.9846 43.5514 48.9846 43.3463C48.9846 42.9744 48.523 42.9744 48.3435 42.9744H48.3563Z"></path></g></g>
<g class="ldl-layer"><g class="ldl-ani"><path fill="url(#paint4_linear_122_18857)" d="M70.7199 59.9005C70.5532 59.9005 70.0274 59.8492 69.7069 59.7979C69.1683 59.721 69.1042 59.4902 69.0272 58.7721C68.9118 57.7462 68.8862 55.7073 68.8862 53.8479V49.8086C68.8862 46.2566 68.8862 45.6155 68.9375 44.8974C68.9888 44.1152 69.1042 43.9228 69.5786 43.8202C69.8607 43.7689 69.9762 43.7689 70.13 43.7689C70.348 43.7689 70.5532 43.5766 70.5532 43.3714C70.5532 43.1919 70.4506 42.9739 69.9377 42.9739C69.4248 42.9739 68.5656 42.9995 68.0398 43.0124C67.809 43.0124 67.6423 43.0124 67.6039 43.0124C67.5782 43.0124 67.4756 43.0124 67.3089 43.0124C66.796 42.9995 65.706 42.9611 64.911 42.9611C64.5263 42.9611 64.3211 43.0893 64.3211 43.3586C64.3211 43.5509 64.4878 43.7561 64.7186 43.7561C64.9238 43.7561 65.3085 43.7818 65.5009 43.8074C66.1164 43.8972 66.2061 44.1023 66.2574 44.9102C66.2831 45.6155 66.3087 46.3464 66.3087 49.8471V50.2575H56.5887V49.8471C56.5887 46.3336 56.5887 45.6026 56.6144 44.8845C56.6657 44.1023 56.7811 43.91 57.2812 43.8074C57.5248 43.7561 57.6787 43.7561 57.8326 43.7561C58.0249 43.7561 58.2301 43.5509 58.2301 43.3586C58.2301 43.0893 58.0378 42.9611 57.6403 42.9611C57.1145 42.9611 56.1784 42.9867 55.6655 42.9995C55.4731 42.9995 55.3321 42.9995 55.3064 42.9995C55.268 42.9995 55.1526 42.9995 54.9602 42.9995C54.4216 42.9867 53.3829 42.9482 52.5879 42.9482C52.2032 42.9482 51.998 43.0765 51.998 43.3458C51.998 43.5381 52.2032 43.7433 52.3956 43.7433C52.5879 43.7433 52.9854 43.7689 53.1778 43.7946C53.8061 43.8843 53.9215 44.1152 53.9728 44.8717C54.0241 45.5898 54.0241 46.231 54.0241 49.783V53.8223C54.0241 56.0535 54.0241 57.8103 53.8831 58.7464V58.8105C53.7676 59.4902 53.7035 59.721 53.4214 59.7851C53.2291 59.8364 52.947 59.8877 52.7418 59.8877C52.4982 59.8877 52.3443 60.0928 52.3443 60.2852C52.3443 60.4391 52.4212 60.6827 52.9341 60.6827C53.4471 60.6827 54.3447 60.6442 54.8704 60.6186C55.1013 60.6186 55.2551 60.6058 55.2936 60.6058C55.3193 60.6058 55.409 60.6058 55.5501 60.6058C56.0502 60.6314 57.2043 60.6827 58.2301 60.6827C58.7687 60.6827 58.82 60.375 58.82 60.2852C58.82 60.0928 58.6789 59.8877 58.4225 59.8877C58.2301 59.8877 57.7428 59.8364 57.371 59.7851C56.8452 59.7081 56.7683 59.4517 56.6913 58.7592C56.5887 57.8231 56.5887 56.092 56.5887 53.8864V51.668H66.3087V53.8864C66.3087 56.0792 66.3087 57.7975 66.2061 58.7336C66.1164 59.4517 66.0394 59.721 65.7189 59.7979C65.4496 59.862 65.2316 59.9005 65.0777 59.9005C64.8341 59.9005 64.6802 60.1057 64.6802 60.298C64.6802 60.5545 64.8725 60.6955 65.27 60.6955C65.783 60.6955 66.7319 60.6571 67.2448 60.6314C67.45 60.6314 67.591 60.6186 67.6167 60.6186C67.6423 60.6186 67.7577 60.6186 67.9244 60.6186C68.4502 60.6442 69.5658 60.6827 70.5404 60.6827C71.1302 60.6827 71.1559 60.3493 71.1559 60.2852C71.1559 60.0928 71.0148 59.8877 70.7327 59.8877L70.7199 59.9005Z"></path></g></g>
<g class="ldl-layer"><g class="ldl-ani"><path fill="url(#paint5_linear_122_18857)" d="M80.7988 42.6538C74.182 42.6538 71.207 48.0011 71.207 51.7967C71.207 56.2207 74.1692 60.991 80.6705 60.991C86.1973 60.991 90.3777 56.8875 90.3777 51.4505C90.3777 46.0135 86.5307 42.6666 80.8116 42.6666L80.7988 42.6538ZM81.3374 59.6317C76.9903 59.6317 74.0666 56.2336 74.0666 51.1812C74.0666 46.6418 76.5287 43.9361 80.6577 43.9361C84.0815 43.9361 87.531 46.4623 87.531 52.0917C87.531 59.2727 82.376 59.6317 81.3374 59.6317Z"></path></g></g>
<g class="ldl-layer"><g class="ldl-ani"><path fill="url(#paint6_linear_122_18857)" d="M113.292 59.901C113.062 59.901 112.459 59.901 111.831 59.6958C111.061 59.4394 110.856 58.4904 110.766 57.5031L109.151 43.4617C109.074 42.7949 108.804 42.6538 108.599 42.6538C108.279 42.6538 108.125 42.9744 108.035 43.1539L101.328 56.9517L94.3654 43.1283C94.1602 42.7179 93.8653 42.6666 93.6986 42.6666C93.455 42.6666 93.2626 42.8975 93.2242 43.2565L91.5059 58.1827L91.4802 58.4007C91.3776 59.2214 91.3007 59.7343 90.7621 59.824H90.698C90.4031 59.8753 90.262 59.901 90.0953 59.901C89.8517 59.901 89.6465 60.0677 89.6465 60.2729C89.6465 60.4267 89.7234 60.696 90.262 60.696C90.6723 60.696 91.2879 60.6576 91.7238 60.6319C91.9675 60.6191 92.1727 60.6063 92.2496 60.6063C92.3137 60.6063 92.4548 60.6063 92.6599 60.6191C93.1344 60.6447 93.8397 60.6832 94.4552 60.6832C94.9809 60.6832 95.0963 60.4524 95.0963 60.26C95.0963 60.0549 94.8783 59.8882 94.6988 59.8882C94.5193 59.8882 94.1987 59.8497 93.8268 59.7599C93.4293 59.6702 93.4293 59.4009 93.4293 59.3111C93.4293 58.9393 93.4293 58.5161 93.455 58.1699L94.3141 48.4371C94.7501 49.3732 95.558 51.0145 96.2248 52.3866C96.571 53.0919 96.8788 53.733 97.0839 54.1562C97.6994 55.4385 99.2895 58.4391 99.8537 59.465C100.315 60.3113 100.495 60.6191 100.841 60.6191C101.187 60.6191 101.354 60.3242 101.867 59.2855L107.291 48.1806L108.356 59.1188C108.394 59.465 108.368 59.6445 108.356 59.7086C108.189 59.7728 108.086 59.9138 108.086 60.0805C108.086 60.4139 108.497 60.4909 108.945 60.5293C109.817 60.6063 112.472 60.6704 112.998 60.6704C113.421 60.6704 113.69 60.5037 113.69 60.2472C113.69 60.0292 113.523 59.8753 113.292 59.8753V59.901Z"></path></g></g>
<g class="ldl-layer"><g class="ldl-ani"><path fill="url(#paint7_linear_122_18857)" d="M125.167 57.1822C124.821 57.1822 124.757 57.5028 124.718 57.7079C124.59 58.6055 124.27 58.9133 123.769 59.1313C123.192 59.3621 122.077 59.3621 121.474 59.3621C119.14 59.3621 118.909 59.08 118.858 57.7336C118.833 57.413 118.858 55.9383 118.858 54.8612C118.858 54.438 118.858 54.0661 118.858 53.8481V51.9888C119.422 51.9888 121.756 52.0144 122.359 52.0914C123.282 52.2068 123.346 52.4761 123.398 52.6556C123.5 52.912 123.5 53.13 123.5 53.3352C123.5 53.6302 123.692 53.7584 123.872 53.7584C124.128 53.7584 124.295 53.5019 124.295 53.1172C124.295 52.9762 124.346 52.117 124.398 51.6554C124.436 51.1681 124.5 50.8603 124.539 50.6423C124.564 50.5269 124.577 50.4372 124.577 50.3731C124.577 50.0781 124.398 49.9755 124.231 49.9755C124.064 49.9755 123.975 50.091 123.834 50.2448L123.744 50.3346C123.564 50.5141 123.256 50.5398 122.769 50.5911H122.718C122.333 50.6295 120.487 50.6423 118.858 50.6423V44.359C119.422 44.359 121.82 44.3975 122.179 44.4359C123.474 44.6026 123.603 44.7565 123.705 45.0001C123.795 45.231 123.821 45.5772 123.821 45.7311C123.821 46.1927 124.128 46.2312 124.218 46.2312C124.436 46.2312 124.59 46.026 124.641 45.8208C124.68 45.6413 124.706 45.2566 124.744 44.7565C124.757 44.5513 124.77 44.3718 124.782 44.2949C124.821 43.9102 124.872 43.6794 124.924 43.4998C124.949 43.3716 124.975 43.2947 124.975 43.2049C124.975 42.8074 124.718 42.7817 124.654 42.7817C124.539 42.7817 124.449 42.8202 124.372 42.8587L124.295 42.8971L124.154 42.9228C123.936 42.9613 123.603 43.0126 123.244 43.0382C123.09 43.0382 122.526 43.0382 121.589 43.0382C120.282 43.0382 118.602 43.0382 117.922 43.0382H117.614C117.614 43.0382 117.448 43.0382 117.255 43.0382C116.704 43.0254 115.665 42.9869 114.87 42.9869C114.485 42.9869 114.28 43.1151 114.28 43.3844C114.28 43.5768 114.485 43.7819 114.678 43.7819C114.896 43.7819 115.28 43.8076 115.46 43.8332C116.088 43.923 116.191 44.1538 116.242 44.9104C116.294 45.6285 116.294 46.2696 116.294 49.8217V53.861C116.294 56.0922 116.294 57.849 116.165 58.7851V58.862C116.05 59.5416 115.986 59.7725 115.729 59.8237C115.64 59.8237 115.55 59.8494 115.447 59.875C115.293 59.9007 115.139 59.9392 115.024 59.9392C114.78 59.9392 114.626 60.1443 114.626 60.3367C114.626 60.4906 114.703 60.7342 115.216 60.7342C115.614 60.7342 116.204 60.7085 116.601 60.6829C117.114 60.6573 117.563 60.6573 117.614 60.6573C117.948 60.6573 118.576 60.6573 119.576 60.7085H120.166C121.102 60.7598 122.256 60.7855 123.705 60.7855C124.641 60.7855 125.026 60.7855 125.231 60.0417C125.372 59.5288 125.565 57.9644 125.565 57.7849C125.565 57.2848 125.308 57.2206 125.193 57.2206L125.167 57.1822Z"></path></g></g>
<g class="ldl-layer"><g class="ldl-ani"><path fill="url(#paint8_linear_122_18857)" d="M48.9969 68.1387H0.538086V68.767H48.9969V68.1387Z"></path></g></g>
<g class="ldl-layer"><g class="ldl-ani"><path fill="url(#paint9_linear_122_18857)" d="M52.3956 70.3698V66.5356H52.4726L55.0244 69.4722V66.5356H55.3963V70.3698H55.3065L52.7803 67.4717V70.3698H52.3828H52.3956Z"></path></g></g>
<g class="ldl-layer"><g class="ldl-ani"><path fill="url(#paint10_linear_122_18857)" d="M61.6284 66.5356H62.0131V70.3698H61.6284V66.5356Z"></path></g></g>
<g class="ldl-layer"><g class="ldl-ani"><path fill="url(#paint11_linear_122_18857)" d="M65.1162 66.5356H65.5009V68.1385H67.45V66.5356H67.8347V70.3698H67.45V68.5232H65.5009V70.3698H65.1162V66.5356Z"></path></g></g>
<g class="ldl-layer"><g class="ldl-ani"><path fill="url(#paint12_linear_122_18857)" d="M70.8862 66.5356L72.6687 70.3698H72.2583L71.6556 69.1131H70.0014L69.3987 70.3698H68.9756L70.7837 66.5356H70.8734H70.8862ZM70.8349 67.3563L70.181 68.7412H71.4889L70.8349 67.3563Z"></path></g></g>
<g class="ldl-layer"><g class="ldl-ani"><path fill="url(#paint13_linear_122_18857)" d="M73.8486 70.3698V66.5356H73.9384L76.4774 69.4722V66.5356H76.8493V70.3698H76.7723L74.2461 67.4717V70.3698H73.8486Z"></path></g></g>
<g class="ldl-layer"><g class="ldl-ani"><path fill="url(#paint14_linear_122_18857)" d="M78.0933 66.5356H78.478V68.1385H80.4271V66.5356H80.8118V70.3698H80.4271V68.5232H78.478V70.3698H78.0933V66.5356Z"></path></g></g>
<g class="ldl-layer"><g class="ldl-ani"><path fill="url(#paint15_linear_122_18857)" d="M83.9785 66.5358H84.7479C85.1839 66.5358 85.4788 66.5486 85.6327 66.5871C85.8507 66.6384 86.0302 66.7538 86.1713 66.9205C86.3123 67.0872 86.3765 67.2923 86.3765 67.5488C86.3765 67.8053 86.3123 68.0104 86.1713 68.1771C86.0302 68.3438 85.8507 68.4593 85.6199 68.5105C85.4404 68.549 85.1198 68.5747 84.6453 68.5747H84.376V70.3571H83.9913V66.5229L83.9785 66.5358ZM84.3632 66.9205V68.2156H85.0172C85.2737 68.2156 85.466 68.2028 85.5942 68.1515C85.7096 68.1002 85.8122 68.0233 85.8764 67.9207C85.9405 67.8181 85.9789 67.6899 85.9789 67.5616C85.9789 67.4334 85.9405 67.318 85.8764 67.2154C85.8122 67.1128 85.7097 67.0359 85.6071 66.9846C85.4917 66.9461 85.2993 66.9205 85.0428 66.9205H84.3632Z"></path></g></g>
<g class="ldl-layer"><g class="ldl-ani"><path fill="url(#paint16_linear_122_18857)" d="M87.5566 66.5356H87.9413V68.1385H89.8905V66.5356H90.2752V70.3698H89.8905V68.5232H87.9413V70.3698H87.5566V66.5356Z"></path></g></g>
<g class="ldl-layer"><g class="ldl-ani"><path fill="url(#paint17_linear_122_18857)" d="M91.4677 66.5358H91.8524V68.844C91.8524 69.1132 91.8524 69.2928 91.8652 69.3569C91.878 69.5108 91.9293 69.639 91.9934 69.7416C92.0575 69.8442 92.1729 69.9211 92.314 69.998C92.455 70.0621 92.5961 70.1006 92.75 70.1006C92.8782 70.1006 93.0064 70.075 93.109 70.0237C93.2244 69.9596 93.327 69.8955 93.404 69.7929C93.4809 69.7031 93.5322 69.5877 93.5707 69.4466C93.5963 69.3569 93.6091 69.1517 93.6091 68.844V66.5358H93.981V68.844C93.981 69.1902 93.9554 69.4595 93.8784 69.6775C93.8143 69.8826 93.6861 70.0621 93.4809 70.2288C93.2757 70.3827 93.0321 70.4597 92.75 70.4597C92.4422 70.4597 92.1729 70.3827 91.9549 70.2288C91.737 70.0878 91.5831 69.8826 91.5061 69.639C91.4548 69.4851 91.4292 69.2158 91.4292 68.8311V66.5229L91.4677 66.5358Z"></path></g></g>
<g class="ldl-layer"><g class="ldl-ani"><path fill="url(#paint18_linear_122_18857)" d="M98.9313 67.2539L98.6235 67.4847C98.4568 67.2667 98.2516 67.1 98.0208 66.9974C97.79 66.882 97.5335 66.8307 97.2514 66.8307C96.9437 66.8307 96.6616 66.9077 96.4051 67.0487C96.1486 67.1898 95.9435 67.3821 95.8024 67.6386C95.6613 67.8822 95.5844 68.1643 95.5844 68.4721C95.5844 68.9337 95.7383 69.3313 96.0717 69.639C96.3923 69.9468 96.8026 70.1135 97.2899 70.1135C97.8156 70.1135 98.2644 69.8955 98.6363 69.4851L98.9441 69.716C98.7517 69.9596 98.5081 70.1519 98.226 70.2802C97.9439 70.4084 97.6233 70.4853 97.2771 70.4853C96.6103 70.4853 96.0717 70.2545 95.687 69.8185C95.3536 69.4467 95.1997 68.985 95.1997 68.4593C95.1997 67.8951 95.3921 67.4206 95.7896 67.0487C96.1871 66.664 96.6744 66.4717 97.2642 66.4717C97.6233 66.4717 97.9439 66.5486 98.226 66.6769C98.5081 66.8179 98.7517 67.0231 98.9313 67.2795V67.2539Z"></path></g></g>
<g class="ldl-layer"><g class="ldl-ani"><path fill="url(#paint19_linear_122_18857)" d="M102.009 70.3698V66.5356H102.086L104.625 69.4722V66.5356H105.01V70.3698H104.92L102.394 67.4717V70.3698H101.996H102.009Z"></path></g></g>
<g class="ldl-layer"><g class="ldl-ani"><path fill="url(#paint20_linear_122_18857)" d="M110.061 67.1769L109.766 67.459C109.548 67.241 109.317 67.0871 109.061 66.9717C108.805 66.8691 108.561 66.805 108.317 66.805C108.022 66.805 107.727 66.8819 107.458 67.023C107.189 67.164 106.971 67.3692 106.83 67.6257C106.676 67.8693 106.612 68.1386 106.612 68.4207C106.612 68.7028 106.689 68.9849 106.843 69.2414C106.996 69.4978 107.202 69.703 107.484 69.8569C107.753 70.0108 108.048 70.0877 108.381 70.0877C108.779 70.0877 109.112 69.9723 109.382 69.7543C109.651 69.5363 109.818 69.2414 109.869 68.8952H108.651V68.5233H110.305C110.305 69.1132 110.125 69.5876 109.779 69.9338C109.433 70.2801 108.971 70.4596 108.381 70.4596C107.676 70.4596 107.112 70.2159 106.702 69.7287C106.381 69.3568 106.227 68.9336 106.227 68.4463C106.227 68.0873 106.317 67.7411 106.496 67.4333C106.676 67.1256 106.932 66.8819 107.24 66.7024C107.561 66.5229 107.92 66.4331 108.317 66.4331C108.638 66.4331 108.946 66.4972 109.228 66.6126C109.51 66.728 109.792 66.9204 110.074 67.1769H110.061Z"></path></g></g>
<g class="ldl-layer"><g class="ldl-ani"><path fill="url(#paint21_linear_122_18857)" d="M113.409 66.5356L115.191 70.3698H114.781L114.178 69.1131H112.524L111.934 70.3698H111.511L113.319 66.5356H113.409ZM113.357 67.3563L112.703 68.7412H114.011L113.357 67.3563Z"></path></g></g>
<g class="ldl-layer"><g class="ldl-ani"><path fill="url(#paint22_linear_122_18857)" d="M116.229 66.5358H116.986C117.422 66.5358 117.717 66.5486 117.871 66.5871C118.088 66.6384 118.268 66.7538 118.409 66.9205C118.55 67.0872 118.614 67.2923 118.614 67.5488C118.614 67.8053 118.55 68.0104 118.409 68.1771C118.281 68.3438 118.088 68.4593 117.858 68.5105C117.691 68.549 117.358 68.5747 116.883 68.5747H116.601V70.3571H116.216V66.5229L116.229 66.5358ZM116.614 66.9205V68.2156H117.268C117.537 68.2156 117.729 68.2028 117.845 68.1515C117.96 68.1002 118.063 68.0233 118.127 67.9207C118.191 67.8181 118.23 67.6899 118.23 67.5616C118.23 67.4334 118.191 67.318 118.127 67.2154C118.063 67.1128 117.973 67.0359 117.858 66.9846C117.742 66.9461 117.563 66.9205 117.306 66.9205H116.627H116.614Z"></path></g></g>
<g class="ldl-layer"><g class="ldl-ani"><path fill="url(#paint23_linear_122_18857)" d="M121.807 66.9203V66.5356H123.91V66.9203H123.051V70.3698H122.666V66.9203H121.807Z"></path></g></g>
<g class="ldl-layer"><g class="ldl-ani"><path fill="url(#paint24_linear_122_18857)" d="M125.129 66.5356H125.898C126.321 66.5356 126.603 66.5485 126.757 66.5869C126.988 66.6382 127.167 66.7536 127.308 66.9203C127.45 67.087 127.526 67.305 127.526 67.5487C127.526 67.7538 127.475 67.9462 127.373 68.1001C127.27 68.254 127.129 68.3822 126.949 68.4591C126.77 68.5361 126.513 68.5745 126.193 68.5874L127.578 70.3698H127.103L125.718 68.5874H125.5V70.3698H125.116V66.5356H125.129ZM125.513 66.9203V68.2155H126.18C126.437 68.2155 126.629 68.2027 126.744 68.1514C126.872 68.1001 126.962 68.0231 127.039 67.9206C127.103 67.818 127.142 67.6897 127.142 67.5615C127.142 67.4333 127.103 67.3179 127.039 67.2153C126.975 67.1127 126.873 67.0357 126.77 66.9973C126.655 66.9588 126.462 66.9332 126.206 66.9332H125.526L125.513 66.9203Z"></path></g></g>
<g class="ldl-layer"><g class="ldl-ani"><path fill="url(#paint25_linear_122_18857)" d="M130.63 66.5356L132.412 70.3698H132.002L131.399 69.1131H129.745L129.155 70.3698H128.732L130.54 66.5356H130.63ZM130.578 67.3563L129.924 68.7412H131.232L130.578 67.3563Z"></path></g></g>
<g class="ldl-layer"><g class="ldl-ani"><path fill="url(#paint26_linear_122_18857)" d="M133.63 70.3698V66.5356H133.707L136.259 69.4722V66.5356H136.631V70.3698H136.554L134.028 67.4717V70.3698H133.63Z"></path></g></g>
<g class="ldl-layer"><g class="ldl-ani"><path fill="url(#paint27_linear_122_18857)" d="M60.0895 66.7281C60.0895 66.7281 60.1793 66.5998 60.2049 66.5101C60.2305 66.4331 60.2306 66.3434 60.2306 66.2408H59.7817V65.8433H60.4998V65.9458C60.4998 65.9458 60.4998 66.0228 60.5127 66.0613C60.5127 66.1638 60.5127 66.2536 60.4998 66.369C60.4998 66.4844 60.4742 66.587 60.4101 66.6896C60.3588 66.7922 60.269 66.8691 60.1664 66.9332C60.1408 66.9589 60.1023 66.9845 60.0767 66.9974C60.0382 67.023 60.0126 67.0358 59.9741 67.0486C60.1408 67.241 60.269 67.459 60.3588 67.6898C60.4485 67.9334 60.4998 68.1899 60.4998 68.4592C60.4998 69.0491 60.3075 69.5363 59.9228 69.9467C59.5381 70.357 59.0765 70.5622 58.5251 70.5622C57.9737 70.5622 57.5377 70.357 57.153 69.9595C56.7555 69.5492 56.5503 69.0491 56.5503 68.4848C56.5503 67.9206 56.7426 67.3949 57.1273 66.9845C57.512 66.587 57.9737 66.369 58.5122 66.369C58.7559 66.369 58.9867 66.4075 59.2047 66.5101C59.4227 66.5998 59.6279 66.7281 59.8074 66.9076C59.833 66.9076 59.8715 66.8691 59.9356 66.8307C59.9997 66.7794 60.051 66.7537 60.0638 66.7281H60.0895ZM58.5507 66.7794C58.1019 66.7794 57.73 66.9461 57.4094 67.2795C57.1017 67.6129 56.9478 68.0232 56.9478 68.4977C56.9478 68.9721 57.1017 69.3568 57.4223 69.6774C57.7428 70.0108 58.1147 70.1775 58.5507 70.1775C58.9867 70.1775 59.3586 70.0108 59.6792 69.6774C59.9869 69.344 60.1536 68.9465 60.1536 68.4592C60.1536 67.9719 59.9869 67.6 59.6663 67.2795C59.3457 66.9461 58.9739 66.7794 58.5507 66.7794Z"></path></g></g>
<g class="ldl-layer"><g class="ldl-ani"><path fill="url(#paint28_linear_122_18857)" d="M70.8354 71.1514V70.562H71.1814V71.1514H70.8354Z"></path></g></g>
<g class="ldl-layer"><g class="ldl-ani"><path fill="url(#paint29_linear_122_18857)" d="M92.5576 66.3304L93.3783 65.7148L93.6732 65.9713L92.7115 66.4714L92.5576 66.3304Z"></path></g></g>
<g class="ldl-layer"><g class="ldl-ani"><path fill="url(#paint30_linear_122_18857)" d="M112.549 66.5225L113.228 65.9326H113.523L114.216 66.5225H113.793L113.382 66.1891L112.972 66.5225H112.549ZM113.203 71.2029V70.6131H113.549V71.2029H113.203Z"></path></g></g>
<g class="ldl-layer"><g class="ldl-ani"><path fill="url(#paint31_linear_122_18857)" d="M131.374 66.3304L131.22 66.4714L130.245 65.9713L130.54 65.7148L131.361 66.3304H131.374Z"></path></g></g>
<g class="ldl-layer"><g class="ldl-ani"><path fill="url(#paint32_linear_122_18857)" d="M84.569 0.273438C75.721 1.35058 66.6678 4.28709 66.078 13.212C65.7958 17.3796 67.0653 20.5084 68.5015 23.5347C64.911 19.957 59.7177 17.0846 52.4341 17.7899C56.8709 19.0594 62.1028 21.483 64.911 24.7016C65.5009 25.3812 66.3729 26.561 66.1677 27.574C65.8215 29.2667 62.7439 28.9204 60.8717 29.0102C64.7443 30.5746 69.0786 33.4085 74.6054 33.229C77.3624 33.1393 79.4012 31.4466 79.1832 28.2921C78.7986 22.6371 74.6695 17.8027 74.2463 11.4168C73.7719 4.21016 78.7729 1.55576 84.3895 0.376023C84.5049 0.414492 84.6844 0.376022 84.7229 0.337552C84.7613 0.311906 84.7229 0.273438 84.569 0.273438Z"></path></g></g>
</g></g></g>
<defs>
<linearGradient gradientUnits="userSpaceOnUse" y2="62.7226" x2="153.301" y1="-9.08721" x1="8.39944" id="paint0_linear_122_18857">
<stop stop-color="#C1813B" style="stop-color: rgb(193, 129, 59);"></stop>
<stop stop-color="#C4873F" offset="0.08" style="stop-color: rgb(196, 135, 63);"></stop>
<stop stop-color="#DAB361" offset="0.69" style="stop-color: rgb(218, 179, 97);"></stop>
<stop stop-color="#E3C56E" offset="1" style="stop-color: rgb(227, 197, 110);"></stop>
</linearGradient>
<linearGradient gradientUnits="userSpaceOnUse" y2="106.808" x2="131.463" y1="34.9982" x1="-13.4389" id="paint1_linear_122_18857">
<stop stop-color="#C1813B" style="stop-color: rgb(193, 129, 59);"></stop>
<stop stop-color="#C4873F" offset="0.08" style="stop-color: rgb(196, 135, 63);"></stop>
<stop stop-color="#DAB361" offset="0.69" style="stop-color: rgb(218, 179, 97);"></stop>
<stop stop-color="#E3C56E" offset="1" style="stop-color: rgb(227, 197, 110);"></stop>
</linearGradient>
<linearGradient gradientUnits="userSpaceOnUse" y2="104.936" x2="132.399" y1="33.1259" x1="-12.5025" id="paint2_linear_122_18857">
<stop stop-color="#C1813B" style="stop-color: rgb(193, 129, 59);"></stop>
<stop stop-color="#C4873F" offset="0.08" style="stop-color: rgb(196, 135, 63);"></stop>
<stop stop-color="#DAB361" offset="0.69" style="stop-color: rgb(218, 179, 97);"></stop>
<stop stop-color="#E3C56E" offset="1" style="stop-color: rgb(227, 197, 110);"></stop>
</linearGradient>
<linearGradient gradientUnits="userSpaceOnUse" y2="99.3579" x2="135.156" y1="27.5481" x1="-9.74556" id="paint3_linear_122_18857">
<stop stop-color="#C1813B" style="stop-color: rgb(193, 129, 59);"></stop>
<stop stop-color="#C4873F" offset="0.08" style="stop-color: rgb(196, 135, 63);"></stop>
<stop stop-color="#DAB361" offset="0.69" style="stop-color: rgb(218, 179, 97);"></stop>
<stop stop-color="#E3C56E" offset="1" style="stop-color: rgb(227, 197, 110);"></stop>
</linearGradient>
<linearGradient gradientUnits="userSpaceOnUse" y2="90.5223" x2="139.542" y1="18.7124" x1="-5.36006" id="paint4_linear_122_18857">
<stop stop-color="#C1813B" style="stop-color: rgb(193, 129, 59);"></stop>
<stop stop-color="#C4873F" offset="0.08" style="stop-color: rgb(196, 135, 63);"></stop>
<stop stop-color="#DAB361" offset="0.69" style="stop-color: rgb(218, 179, 97);"></stop>
<stop stop-color="#E3C56E" offset="1" style="stop-color: rgb(227, 197, 110);"></stop>
</linearGradient>
<linearGradient gradientUnits="userSpaceOnUse" y2="82.816" x2="143.363" y1="11.0062" x1="-1.53889" id="paint5_linear_122_18857">
<stop stop-color="#C1813B" style="stop-color: rgb(193, 129, 59);"></stop>
<stop stop-color="#C4873F" offset="0.08" style="stop-color: rgb(196, 135, 63);"></stop>
<stop stop-color="#DAB361" offset="0.69" style="stop-color: rgb(218, 179, 97);"></stop>
<stop stop-color="#E3C56E" offset="1" style="stop-color: rgb(227, 197, 110);"></stop>
</linearGradient>
<linearGradient gradientUnits="userSpaceOnUse" y2="75.3273" x2="147.069" y1="3.51745" x1="2.16672" id="paint6_linear_122_18857">
<stop stop-color="#C1813B" style="stop-color: rgb(193, 129, 59);"></stop>
<stop stop-color="#C4873F" offset="0.08" style="stop-color: rgb(196, 135, 63);"></stop>
<stop stop-color="#DAB361" offset="0.69" style="stop-color: rgb(218, 179, 97);"></stop>
<stop stop-color="#E3C56E" offset="1" style="stop-color: rgb(227, 197, 110);"></stop>
</linearGradient>
<linearGradient gradientUnits="userSpaceOnUse" y2="67.2099" x2="151.083" y1="-4.59992" x1="6.18087" id="paint7_linear_122_18857">
<stop stop-color="#C1813B" style="stop-color: rgb(193, 129, 59);"></stop>
<stop stop-color="#C4873F" offset="0.08" style="stop-color: rgb(196, 135, 63);"></stop>
<stop stop-color="#DAB361" offset="0.69" style="stop-color: rgb(218, 179, 97);"></stop>
<stop stop-color="#E3C56E" offset="1" style="stop-color: rgb(227, 197, 110);"></stop>
</linearGradient>
<linearGradient gradientUnits="userSpaceOnUse" y2="118.483" x2="125.718" y1="46.6728" x1="-19.184" id="paint8_linear_122_18857">
<stop stop-color="#C1813B" style="stop-color: rgb(193, 129, 59);"></stop>
<stop stop-color="#C4873F" offset="0.08" style="stop-color: rgb(196, 135, 63);"></stop>
<stop stop-color="#DAB361" offset="0.69" style="stop-color: rgb(218, 179, 97);"></stop>
<stop stop-color="#E3C56E" offset="1" style="stop-color: rgb(227, 197, 110);"></stop>
</linearGradient>
<linearGradient gradientUnits="userSpaceOnUse" y2="106.89" x2="131.463" y1="35.0804" x1="-13.4386" id="paint9_linear_122_18857">
<stop stop-color="#C1813B" style="stop-color: rgb(193, 129, 59);"></stop>
<stop stop-color="#C4873F" offset="0.08" style="stop-color: rgb(196, 135, 63);"></stop>
<stop stop-color="#DAB361" offset="0.69" style="stop-color: rgb(218, 179, 97);"></stop>
<stop stop-color="#E3C56E" offset="1" style="stop-color: rgb(227, 197, 110);"></stop>
</linearGradient>
<linearGradient gradientUnits="userSpaceOnUse" y2="103.737" x2="133.028" y1="31.9259" x1="-11.8748" id="paint10_linear_122_18857">
<stop stop-color="#C1813B" style="stop-color: rgb(193, 129, 59);"></stop>
<stop stop-color="#C4873F" offset="0.08" style="stop-color: rgb(196, 135, 63);"></stop>
<stop stop-color="#DAB361" offset="0.69" style="stop-color: rgb(218, 179, 97);"></stop>
<stop stop-color="#E3C56E" offset="1" style="stop-color: rgb(227, 197, 110);"></stop>
</linearGradient>
<linearGradient gradientUnits="userSpaceOnUse" y2="101.889" x2="133.938" y1="30.0794" x1="-10.9637" id="paint11_linear_122_18857">
<stop stop-color="#C1813B" style="stop-color: rgb(193, 129, 59);"></stop>
<stop stop-color="#C4873F" offset="0.08" style="stop-color: rgb(196, 135, 63);"></stop>
<stop stop-color="#DAB361" offset="0.69" style="stop-color: rgb(218, 179, 97);"></stop>
<stop stop-color="#E3C56E" offset="1" style="stop-color: rgb(227, 197, 110);"></stop>
</linearGradient>
<linearGradient gradientUnits="userSpaceOnUse" y2="100.504" x2="134.63" y1="28.6945" x1="-10.2716" id="paint12_linear_122_18857">
<stop stop-color="#C1813B" style="stop-color: rgb(193, 129, 59);"></stop>
<stop stop-color="#C4873F" offset="0.08" style="stop-color: rgb(196, 135, 63);"></stop>
<stop stop-color="#DAB361" offset="0.69" style="stop-color: rgb(218, 179, 97);"></stop>
<stop stop-color="#E3C56E" offset="1" style="stop-color: rgb(227, 197, 110);"></stop>
</linearGradient>
<linearGradient gradientUnits="userSpaceOnUse" y2="98.3629" x2="135.695" y1="26.553" x1="-9.20713" id="paint13_linear_122_18857">
<stop stop-color="#C1813B" style="stop-color: rgb(193, 129, 59);"></stop>
<stop stop-color="#C4873F" offset="0.08" style="stop-color: rgb(196, 135, 63);"></stop>
<stop stop-color="#DAB361" offset="0.69" style="stop-color: rgb(218, 179, 97);"></stop>
<stop stop-color="#E3C56E" offset="1" style="stop-color: rgb(227, 197, 110);"></stop>
</linearGradient>
<linearGradient gradientUnits="userSpaceOnUse" y2="96.7217" x2="136.503" y1="24.9116" x1="-8.39924" id="paint14_linear_122_18857">
<stop stop-color="#C1813B" style="stop-color: rgb(193, 129, 59);"></stop>
<stop stop-color="#C4873F" offset="0.08" style="stop-color: rgb(196, 135, 63);"></stop>
<stop stop-color="#DAB361" offset="0.69" style="stop-color: rgb(218, 179, 97);"></stop>
<stop stop-color="#E3C56E" offset="1" style="stop-color: rgb(227, 197, 110);"></stop>
</linearGradient>
<linearGradient gradientUnits="userSpaceOnUse" y2="94.6057" x2="137.554" y1="22.7958" x1="-7.34835" id="paint15_linear_122_18857">
<stop stop-color="#C1813B" style="stop-color: rgb(193, 129, 59);"></stop>
<stop stop-color="#C4873F" offset="0.08" style="stop-color: rgb(196, 135, 63);"></stop>
<stop stop-color="#DAB361" offset="0.69" style="stop-color: rgb(218, 179, 97);"></stop>
<stop stop-color="#E3C56E" offset="1" style="stop-color: rgb(227, 197, 110);"></stop>
</linearGradient>
<linearGradient gradientUnits="userSpaceOnUse" y2="92.9645" x2="138.375" y1="21.1544" x1="-6.5272" id="paint16_linear_122_18857">
<stop stop-color="#C1813B" style="stop-color: rgb(193, 129, 59);"></stop>
<stop stop-color="#C4873F" offset="0.08" style="stop-color: rgb(196, 135, 63);"></stop>
<stop stop-color="#DAB361" offset="0.69" style="stop-color: rgb(218, 179, 97);"></stop>
<stop stop-color="#E3C56E" offset="1" style="stop-color: rgb(227, 197, 110);"></stop>
</linearGradient>
<linearGradient gradientUnits="userSpaceOnUse" y2="91.2972" x2="139.196" y1="19.4875" x1="-5.70632" id="paint17_linear_122_18857">
<stop stop-color="#C1813B" style="stop-color: rgb(193, 129, 59);"></stop>
<stop stop-color="#C4873F" offset="0.08" style="stop-color: rgb(196, 135, 63);"></stop>
<stop stop-color="#DAB361" offset="0.69" style="stop-color: rgb(218, 179, 97);"></stop>
<stop stop-color="#E3C56E" offset="1" style="stop-color: rgb(227, 197, 110);"></stop>
</linearGradient>
<linearGradient gradientUnits="userSpaceOnUse" y2="89.643" x2="140.017" y1="17.8333" x1="-4.88517" id="paint18_linear_122_18857">
<stop stop-color="#C1813B" style="stop-color: rgb(193, 129, 59);"></stop>
<stop stop-color="#C4873F" offset="0.08" style="stop-color: rgb(196, 135, 63);"></stop>
<stop stop-color="#DAB361" offset="0.69" style="stop-color: rgb(218, 179, 97);"></stop>
<stop stop-color="#E3C56E" offset="1" style="stop-color: rgb(227, 197, 110);"></stop>
</linearGradient>
<linearGradient gradientUnits="userSpaceOnUse" y2="87.1553" x2="141.248" y1="15.3455" x1="-3.65405" id="paint19_linear_122_18857">
<stop stop-color="#C1813B" style="stop-color: rgb(193, 129, 59);"></stop>
<stop stop-color="#C4873F" offset="0.08" style="stop-color: rgb(196, 135, 63);"></stop>
<stop stop-color="#DAB361" offset="0.69" style="stop-color: rgb(218, 179, 97);"></stop>
<stop stop-color="#E3C56E" offset="1" style="stop-color: rgb(227, 197, 110);"></stop>
</linearGradient>
<linearGradient gradientUnits="userSpaceOnUse" y2="85.2448" x2="142.196" y1="13.4349" x1="-2.70593" id="paint20_linear_122_18857">
<stop stop-color="#C1813B" style="stop-color: rgb(193, 129, 59);"></stop>
<stop stop-color="#C4873F" offset="0.08" style="stop-color: rgb(196, 135, 63);"></stop>
<stop stop-color="#DAB361" offset="0.69" style="stop-color: rgb(218, 179, 97);"></stop>
<stop stop-color="#E3C56E" offset="1" style="stop-color: rgb(227, 197, 110);"></stop>
</linearGradient>
<linearGradient gradientUnits="userSpaceOnUse" y2="83.5907" x2="143.017" y1="11.7807" x1="-1.8848" id="paint21_linear_122_18857">
<stop stop-color="#C1813B" style="stop-color: rgb(193, 129, 59);"></stop>
<stop stop-color="#C4873F" offset="0.08" style="stop-color: rgb(196, 135, 63);"></stop>
<stop stop-color="#DAB361" offset="0.69" style="stop-color: rgb(218, 179, 97);"></stop>
<stop stop-color="#E3C56E" offset="1" style="stop-color: rgb(227, 197, 110);"></stop>
</linearGradient>
<linearGradient gradientUnits="userSpaceOnUse" y2="81.7825" x2="143.914" y1="9.9726" x1="-0.987783" id="paint22_linear_122_18857">
<stop stop-color="#C1813B" style="stop-color: rgb(193, 129, 59);"></stop>
<stop stop-color="#C4873F" offset="0.08" style="stop-color: rgb(196, 135, 63);"></stop>
<stop stop-color="#DAB361" offset="0.69" style="stop-color: rgb(218, 179, 97);"></stop>
<stop stop-color="#E3C56E" offset="1" style="stop-color: rgb(227, 197, 110);"></stop>
</linearGradient>
<linearGradient gradientUnits="userSpaceOnUse" y2="79.2819" x2="145.145" y1="7.47211" x1="0.243392" id="paint23_linear_122_18857">
<stop stop-color="#C1813B" style="stop-color: rgb(193, 129, 59);"></stop>
<stop stop-color="#C4873F" offset="0.08" style="stop-color: rgb(196, 135, 63);"></stop>
<stop stop-color="#DAB361" offset="0.69" style="stop-color: rgb(218, 179, 97);"></stop>
<stop stop-color="#E3C56E" offset="1" style="stop-color: rgb(227, 197, 110);"></stop>
</linearGradient>
<linearGradient gradientUnits="userSpaceOnUse" y2="78.2304" x2="145.671" y1="6.42061" x1="0.769409" id="paint24_linear_122_18857">
<stop stop-color="#C1813B" style="stop-color: rgb(193, 129, 59);"></stop>
<stop stop-color="#C4873F" offset="0.08" style="stop-color: rgb(196, 135, 63);"></stop>
<stop stop-color="#DAB361" offset="0.69" style="stop-color: rgb(218, 179, 97);"></stop>
<stop stop-color="#E3C56E" offset="1" style="stop-color: rgb(227, 197, 110);"></stop>
</linearGradient>
<linearGradient gradientUnits="userSpaceOnUse" y2="76.7431" x2="146.402" y1="4.93312" x1="1.50015" id="paint25_linear_122_18857">
<stop stop-color="#C1813B" style="stop-color: rgb(193, 129, 59);"></stop>
<stop stop-color="#C4873F" offset="0.08" style="stop-color: rgb(196, 135, 63);"></stop>
<stop stop-color="#DAB361" offset="0.69" style="stop-color: rgb(218, 179, 97);"></stop>
<stop stop-color="#E3C56E" offset="1" style="stop-color: rgb(227, 197, 110);"></stop>
</linearGradient>
<linearGradient gradientUnits="userSpaceOnUse" y2="74.5761" x2="147.479" y1="2.76601" x1="2.5772" id="paint26_linear_122_18857">
<stop stop-color="#C1813B" style="stop-color: rgb(193, 129, 59);"></stop>
<stop stop-color="#C4873F" offset="0.08" style="stop-color: rgb(196, 135, 63);"></stop>
<stop stop-color="#DAB361" offset="0.69" style="stop-color: rgb(218, 179, 97);"></stop>
<stop stop-color="#E3C56E" offset="1" style="stop-color: rgb(227, 197, 110);"></stop>
</linearGradient>
<linearGradient gradientUnits="userSpaceOnUse" y2="104.544" x2="132.63" y1="32.7338" x1="-12.2717" id="paint27_linear_122_18857">
<stop stop-color="#C1813B" style="stop-color: rgb(193, 129, 59);"></stop>
<stop stop-color="#C4873F" offset="0.08" style="stop-color: rgb(196, 135, 63);"></stop>
<stop stop-color="#DAB361" offset="0.69" style="stop-color: rgb(218, 179, 97);"></stop>
<stop stop-color="#E3C56E" offset="1" style="stop-color: rgb(227, 197, 110);"></stop>
</linearGradient>
<linearGradient gradientUnits="userSpaceOnUse" y2="101.991" x2="133.821" y1="30.2418" x1="-10.9584" id="paint28_linear_122_18857">
<stop stop-color="#C1813B" style="stop-color: rgb(193, 129, 59);"></stop>
<stop stop-color="#C4873F" offset="0.08" style="stop-color: rgb(196, 135, 63);"></stop>
<stop stop-color="#DAB361" offset="0.69" style="stop-color: rgb(218, 179, 97);"></stop>
<stop stop-color="#E3C56E" offset="1" style="stop-color: rgb(227, 197, 110);"></stop>
</linearGradient>
<linearGradient gradientUnits="userSpaceOnUse" y2="89.4258" x2="140.118" y1="17.6154" x1="-4.78347" id="paint29_linear_122_18857">
<stop stop-color="#C1813B" style="stop-color: rgb(193, 129, 59);"></stop>
<stop stop-color="#C4873F" offset="0.08" style="stop-color: rgb(196, 135, 63);"></stop>
<stop stop-color="#DAB361" offset="0.69" style="stop-color: rgb(218, 179, 97);"></stop>
<stop stop-color="#E3C56E" offset="1" style="stop-color: rgb(227, 197, 110);"></stop>
</linearGradient>
<linearGradient gradientUnits="userSpaceOnUse" y2="83.3211" x2="143.145" y1="11.511" x1="-1.75731" id="paint30_linear_122_18857">
<stop stop-color="#C1813B" style="stop-color: rgb(193, 129, 59);"></stop>
<stop stop-color="#C4873F" offset="0.08" style="stop-color: rgb(196, 135, 63);"></stop>
<stop stop-color="#DAB361" offset="0.69" style="stop-color: rgb(218, 179, 97);"></stop>
<stop stop-color="#E3C56E" offset="1" style="stop-color: rgb(227, 197, 110);"></stop>
</linearGradient>
<linearGradient gradientUnits="userSpaceOnUse" y2="74.3708" x2="147.582" y1="2.56105" x1="2.68048" id="paint31_linear_122_18857">
<stop stop-color="#C1813B" style="stop-color: rgb(193, 129, 59);"></stop>
<stop stop-color="#C4873F" offset="0.08" style="stop-color: rgb(196, 135, 63);"></stop>
<stop stop-color="#DAB361" offset="0.69" style="stop-color: rgb(218, 179, 97);"></stop>
<stop stop-color="#E3C56E" offset="1" style="stop-color: rgb(227, 197, 110);"></stop>
</linearGradient>
<linearGradient gradientUnits="userSpaceOnUse" y2="56.1569" x2="156.546" y1="-15.653" x1="11.6435" id="paint32_linear_122_18857">
<stop stop-color="#C1813B" style="stop-color: rgb(193, 129, 59);"></stop>
<stop stop-color="#C4873F" offset="0.08" style="stop-color: rgb(196, 135, 63);"></stop>
<stop stop-color="#DAB361" offset="0.69" style="stop-color: rgb(218, 179, 97);"></stop>
<stop stop-color="#E3C56E" offset="1" style="stop-color: rgb(227, 197, 110);"></stop>
</linearGradient>
<clipPath id="clip0_122_18857">
<rect transform="translate(0.5)" fill="white" height="70.8621" width="137" style="fill: rgb(255, 255, 255);"></rect>
</clipPath>
</defs>
</g></g></svg>